<svg xmlns="http://www.w3.org/2000/svg" xmlns:xlink="http://www.w3.org/1999/xlink" width="24" height="24" viewBox="0 0 24 24">
	<defs>
		<rect id="8yfua4ejpa" width="24" height="24" x="0" y="0" rx="12" />
	</defs>
	<g fill="none" fill-rule="evenodd">
		<mask id="vz9hd8y0fb" fill="#fff">
			<use xlink:href="#8yfua4ejpa" />
		</mask>
		<use fill="#D8D8D8" xlink:href="#8yfua4ejpa" />
		<g mask="url(#vz9hd8y0fb)">
			<path fill="#E6211B" d="M24 0v24H.001L0 23.999V0h24z" />
			<path fill="#FFF" d="M19.844 8.429c-.186-.695-.733-1.243-1.432-1.431-1.26-.337-6.321-.337-6.321-.337s-5.06 0-6.322.337c-.696.185-1.243.734-1.432 1.43C4 9.692 4 12.325 4 12.325s0 2.633.337 3.894c.186.695.735 1.244 1.432 1.432 1.263.337 6.322.337 6.322.337s5.06 0 6.32-.337c.697-.186 1.246-.734 1.433-1.432.337-1.261.337-3.894.337-3.894s0-2.633-.337-3.895" />
			<path fill="#E6211B" d="M10.474 14.751L14.678 12.324 10.474 9.896z" />
		</g>
	</g>
</svg>
