<svg xmlns="http://www.w3.org/2000/svg" width="24" height="24" viewBox="0 0 24 24">
	<defs>
		<linearGradient id="5cpx3irfca" x1="6.714%" x2="93.608%" y1="93.485%" y2="6.619%">
			<stop offset="0%" stop-color="#FD5" />
			<stop offset="50%" stop-color="#FF543E" />
			<stop offset="100%" stop-color="#C837AB" />
		</linearGradient>
	</defs>
	<g fill="none" fill-rule="evenodd">
		<circle cx="12" cy="12" r="12" fill="url(#5cpx3irfca)" />
		<path fill="#FFF" fill-rule="nonzero" d="M12.03 3.87c-3.331 0-6.496-.297-7.704 2.805-.5 1.281-.427 2.945-.427 5.327 0 2.09-.067 4.056.427 5.327 1.206 3.103 4.395 2.806 7.703 2.806 3.19 0 6.48.332 7.704-2.806.5-1.294.427-2.933.427-5.327 0-3.177.175-5.228-1.366-6.768-1.56-1.56-3.67-1.364-6.767-1.364h.004zm-.728 1.465c6.95-.01 7.835-.784 7.347 9.95-.173 3.797-3.064 3.38-6.617 3.38-6.48 0-6.666-.185-6.666-6.666 0-6.557.514-6.66 5.936-6.666v.002zm5.07 1.35c-.54 0-.976.437-.976.976 0 .538.437.975.975.975.54 0 .976-.437.976-.975 0-.54-.437-.976-.976-.976zm-4.341 1.14c-2.306 0-4.176 1.871-4.176 4.177 0 2.306 1.87 4.176 4.176 4.176s4.174-1.87 4.174-4.176-1.868-4.176-4.174-4.176zm0 1.466c3.583 0 3.588 5.422 0 5.422-3.583 0-3.589-5.422 0-5.422z" />
	</g>
</svg>
